{
  "asset": {
    "version": "2.0",
    "generator": "THREE.GLTFExporter r183"
  },
  "scenes": [
    {
      "name": "Scene",
      "nodes": [
        0,
        12,
        13,
        14,
        15,
        16,
        17
      ]
    }
  ],
  "scene": 0,
  "nodes": [
    {
      "name": "withskybox.glb",
      "children": [
        1,
        10,
        11
      ]
    },
    {
      "matrix": [
        6.923565864562988,
        0,
        0,
        0,
        0,
        6.923565864562988,
        0,
        0,
        0,
        0,
        6.923565864562988,
        0,
        -5.173926830291748,
        0,
        0,
        1
      ],
      "name": "Plane",
      "extras": {
        "name": "Plane"
      },
      "children": [
        2,
        3,
        4,
        5,
        6,
        7,
        8,
        9
      ]
    },
    {
      "name": "Plane_1",
      "mesh": 0
    },
    {
      "name": "Plane_2",
      "mesh": 1
    },
    {
      "name": "Plane_3",
      "mesh": 2
    },
    {
      "name": "Plane_4",
      "mesh": 3
    },
    {
      "name": "Plane_5",
      "mesh": 4
    },
    {
      "name": "Plane_6",
      "mesh": 5
    },
    {
      "name": "Plane_7",
      "mesh": 6
    },
    {
      "name": "Plane_8",
      "mesh": 7
    },
    {
      "matrix": [
        0.9999242004518432,
        0,
        -0.01231232510396263,
        0,
        0,
        1,
        0,
        0,
        0.01231232510396263,
        0,
        0.9999242004518432,
        0,
        -6.404557704925537,
        1.0250816345214844,
        6.895017623901367,
        1
      ],
      "name": "Camera",
      "extras": {
        "name": "Camera"
      },
      "camera": 0
    },
    {
      "matrix": [
        -26.081768035888672,
        0,
        0,
        0,
        0,
        -26.081768035888672,
        0,
        0,
        0,
        0,
        -26.081768035888672,
        0,
        6.160873719339887,
        8.770130506319779,
        -0.0018844510550757587,
        1
      ],
      "name": "Skybox",
      "extras": {
        "name": "Skybox"
      },
      "mesh": 8
    },
    {
      "matrix": [
        1,
        0,
        0,
        0,
        0,
        1,
        0,
        0,
        0,
        0,
        1,
        0,
        -5.352666360969145,
        7.246721615084202,
        0,
        1
      ],
      "name": "PointLight",
      "extensions": {
        "KHR_lights_punctual": {
          "light": 0
        }
      }
    },
    {
      "matrix": [
        1,
        0,
        0,
        0,
        0,
        1,
        0,
        0,
        0,
        0,
        1,
        0,
        0,
        7.32944360379275,
        -62.6055550871074,
        1
      ],
      "name": "PointLight",
      "extensions": {
        "KHR_lights_punctual": {
          "light": 1
        }
      }
    },
    {
      "matrix": [
        1,
        0,
        0,
        0,
        0,
        1,
        0,
        0,
        0,
        0,
        1,
        0,
        0,
        10.122321641202205,
        -143.8367853866527,
        1
      ],
      "name": "PointLight",
      "extensions": {
        "KHR_lights_punctual": {
          "light": 2
        }
      }
    },
    {
      "matrix": [
        1,
        0,
        0,
        0,
        0,
        1,
        0,
        0,
        0,
        0,
        1,
        0,
        0,
        8.761504264323719,
        -227.44598677798547,
        1
      ],
      "name": "PointLight",
      "extensions": {
        "KHR_lights_punctual": {
          "light": 3
        }
      }
    },
    {
      "matrix": [
        1,
        0,
        0,
        0,
        0,
        1,
        0,
        0,
        0,
        0,
        1,
        0,
        -25.118796011208573,
        0,
        -333.91021781066627,
        1
      ],
      "name": "PointLight",
      "extensions": {
        "KHR_lights_punctual": {
          "light": 4
        }
      }
    },
    {
      "matrix": [
        1,
        0,
        0,
        0,
        0,
        1,
        0,
        0,
        0,
        0,
        1,
        0,
        0,
        14.727689948830665,
        -384.0719661428104,
        1
      ],
      "name": "PointLight",
      "extensions": {
        "KHR_lights_punctual": {
          "light": 5
        }
      }
    }
  ],
  "bufferViews": [
    {
      "buffer": 0,
      "byteOffset": 0,
      "byteLength": 32640,
      "target": 34962,
      "byteStride": 12
    },
    {
      "buffer": 0,
      "byteOffset": 32640,
      "byteLength": 32640,
      "target": 34962,
      "byteStride": 12
    },
    {
      "buffer": 0,
      "byteOffset": 65280,
      "byteLength": 21760,
      "target": 34962,
      "byteStride": 8
    },
    {
      "buffer": 0,
      "byteOffset": 87040,
      "byteLength": 13320,
      "target": 34963
    },
    {
      "buffer": 0,
      "byteOffset": 100360,
      "byteLength": 5400,
      "target": 34962,
      "byteStride": 12
    },
    {
      "buffer": 0,
      "byteOffset": 105760,
      "byteLength": 5400,
      "target": 34962,
      "byteStride": 12
    },
    {
      "buffer": 0,
      "byteOffset": 111160,
      "byteLength": 3600,
      "target": 34962,
      "byteStride": 8
    },
    {
      "buffer": 0,
      "byteOffset": 114760,
      "byteLength": 1620,
      "target": 34963
    },
    {
      "buffer": 0,
      "byteOffset": 116380,
      "byteLength": 27408,
      "target": 34962,
      "byteStride": 12
    },
    {
      "buffer": 0,
      "byteOffset": 143788,
      "byteLength": 27408,
      "target": 34962,
      "byteStride": 12
    },
    {
      "buffer": 0,
      "byteOffset": 171196,
      "byteLength": 18272,
      "target": 34962,
      "byteStride": 8
    },
    {
      "buffer": 0,
      "byteOffset": 189468,
      "byteLength": 10440,
      "target": 34963
    },
    {
      "buffer": 0,
      "byteOffset": 199908,
      "byteLength": 29280,
      "target": 34962,
      "byteStride": 12
    },
    {
      "buffer": 0,
      "byteOffset": 229188,
      "byteLength": 29280,
      "target": 34962,
      "byteStride": 12
    },
    {
      "buffer": 0,
      "byteOffset": 258468,
      "byteLength": 19520,
      "target": 34962,
      "byteStride": 8
    },
    {
      "buffer": 0,
      "byteOffset": 277988,
      "byteLength": 11880,
      "target": 34963
    },
    {
      "buffer": 0,
      "byteOffset": 289868,
      "byteLength": 26304,
      "target": 34962,
      "byteStride": 12
    },
    {
      "buffer": 0,
      "byteOffset": 316172,
      "byteLength": 26304,
      "target": 34962,
      "byteStride": 12
    },
    {
      "buffer": 0,
      "byteOffset": 342476,
      "byteLength": 17536,
      "target": 34962,
      "byteStride": 8
    },
    {
      "buffer": 0,
      "byteOffset": 360012,
      "byteLength": 10440,
      "target": 34963
    },
    {
      "buffer": 0,
      "byteOffset": 370452,
      "byteLength": 2880,
      "target": 34962,
      "byteStride": 12
    },
    {
      "buffer": 0,
      "byteOffset": 373332,
      "byteLength": 2880,
      "target": 34962,
      "byteStride": 12
    },
    {
      "buffer": 0,
      "byteOffset": 376212,
      "byteLength": 1920,
      "target": 34962,
      "byteStride": 8
    },
    {
      "buffer": 0,
      "byteOffset": 378132,
      "byteLength": 720,
      "target": 34963
    },
    {
      "buffer": 0,
      "byteOffset": 378852,
      "byteLength": 5760,
      "target": 34962,
      "byteStride": 12
    },
    {
      "buffer": 0,
      "byteOffset": 384612,
      "byteLength": 5760,
      "target": 34962,
      "byteStride": 12
    },
    {
      "buffer": 0,
      "byteOffset": 390372,
      "byteLength": 3840,
      "target": 34962,
      "byteStride": 8
    },
    {
      "buffer": 0,
      "byteOffset": 394212,
      "byteLength": 1440,
      "target": 34963
    },
    {
      "buffer": 0,
      "byteOffset": 395652,
      "byteLength": 40320,
      "target": 34962,
      "byteStride": 12
    },
    {
      "buffer": 0,
      "byteOffset": 435972,
      "byteLength": 40320,
      "target": 34962,
      "byteStride": 12
    },
    {
      "buffer": 0,
      "byteOffset": 476292,
      "byteLength": 26880,
      "target": 34962,
      "byteStride": 8
    },
    {
      "buffer": 0,
      "byteOffset": 503172,
      "byteLength": 10080,
      "target": 34963
    },
    {
      "buffer": 0,
      "byteOffset": 513252,
      "byteLength": 288,
      "target": 34962,
      "byteStride": 12
    },
    {
      "buffer": 0,
      "byteOffset": 513540,
      "byteLength": 288,
      "target": 34962,
      "byteStride": 12
    },
    {
      "buffer": 0,
      "byteOffset": 513828,
      "byteLength": 192,
      "target": 34962,
      "byteStride": 8
    },
    {
      "buffer": 0,
      "byteOffset": 514020,
      "byteLength": 72,
      "target": 34963
    }
  ],
  "buffers": [
    {
      "byteLength": 514092,
      "uri": "data:application/octet-stream;base64,"
    }
  ],
  "accessors": [
    {
      "bufferView": 0,
      "componentType": 5126,
      "count": 2720,
      "max": [
        0.938298761844635,
        0.8484654426574707,
        0.705253005027771
      ],
      "min": [
        -0.9661913514137268,
        0.00215322058647871,
        -58.8371696472168
      ],
      "type": "VEC3"
    },
    {
      "bufferView": 1,
      "componentType": 5126,
      "count": 2720,
      "max": [
        0.9673743844032288,
        1,
        0.967109739780426
      ],
      "min": [
        -0.9673743844032288,
        -1,
        -0.967109739780426
      ],
      "type": "VEC3"
    },
    {
      "bufferView": 2,
      "componentType": 5126,
      "count": 2720,
      "max": [
        0.875,
        1
      ],
      "min": [
        0.125,
        0
      ],
      "type": "VEC2"
    },
    {
      "bufferView": 3,
      "componentType": 5123,
      "count": 6660,
      "max": [
        2719
      ],
      "min": [
        0
      ],
      "type": "SCALAR"
    },
    {
      "bufferView": 4,
      "componentType": 5126,
      "count": 450,
      "max": [
        0.5,
        0.03261825814843178,
        1
      ],
      "min": [
        -0.5,
        0,
        -59
      ],
      "type": "VEC3"
    },
    {
      "bufferView": 5,
      "componentType": 5126,
      "count": 450,
      "max": [
        0,
        1,
        0
      ],
      "min": [
        0,
        -1,
        -1
      ],
      "type": "VEC3"
    },
    {
      "bufferView": 6,
      "componentType": 5126,
      "count": 450,
      "max": [
        0.75,
        1
      ],
      "min": [
        0,
        0
      ],
      "type": "VEC2"
    },
    {
      "bufferView": 7,
      "componentType": 5123,
      "count": 810,
      "max": [
        449
      ],
      "min": [
        0
      ],
      "type": "SCALAR"
    },
    {
      "bufferView": 8,
      "componentType": 5126,
      "count": 2284,
      "max": [
        -0.5205011367797852,
        1.1298973560333252,
        0.705253005027771
      ],
      "min": [
        -0.9661913514137268,
        0.008174628019332886,
        -57.73487854003906
      ],
      "type": "VEC3"
    },
    {
      "bufferView": 9,
      "componentType": 5126,
      "count": 2284,
      "max": [
        1,
        1,
        1
      ],
      "min": [
        -1,
        -0.02429925836622715,
        -1
      ],
      "type": "VEC3"
    },
    {
      "bufferView": 10,
      "componentType": 5126,
      "count": 2284,
      "max": [
        0.875,
        1
      ],
      "min": [
        0.375,
        0
      ],
      "type": "VEC2"
    },
    {
      "bufferView": 11,
      "componentType": 5123,
      "count": 5220,
      "max": [
        2283
      ],
      "min": [
        0
      ],
      "type": "SCALAR"
    },
    {
      "bufferView": 12,
      "componentType": 5126,
      "count": 2440,
      "max": [
        -0.5848271250724792,
        0.8348750472068787,
        -0.04568125680088997
      ],
      "min": [
        -0.9560064673423767,
        0.0028955386951565742,
        -58.385108947753906
      ],
      "type": "VEC3"
    },
    {
      "bufferView": 13,
      "componentType": 5126,
      "count": 2440,
      "max": [
        0.9881498217582703,
        1,
        0.9881498217582703
      ],
      "min": [
        -0.9881498217582703,
        -0.12009935826063156,
        -0.9881498217582703
      ],
      "type": "VEC3"
    },
    {
      "bufferView": 14,
      "componentType": 5126,
      "count": 2440,
      "max": [
        0.875,
        1
      ],
      "min": [
        0.375,
        0
      ],
      "type": "VEC2"
    },
    {
      "bufferView": 15,
      "componentType": 5123,
      "count": 5940,
      "max": [
        2439
      ],
      "min": [
        0
      ],
      "type": "SCALAR"
    },
    {
      "bufferView": 16,
      "componentType": 5126,
      "count": 2192,
      "max": [
        0.9097486734390259,
        0.9193007946014404,
        -0.4961603879928589
      ],
      "min": [
        0.506992518901825,
        0.0034100855700671673,
        -58.84626388549805
      ],
      "type": "VEC3"
    },
    {
      "bufferView": 17,
      "componentType": 5126,
      "count": 2192,
      "max": [
        0.9797497391700745,
        0.09090118855237961,
        0.9797568917274475
      ],
      "min": [
        -0.9797497391700745,
        -1,
        -0.9797568917274475
      ],
      "type": "VEC3"
    },
    {
      "bufferView": 18,
      "componentType": 5126,
      "count": 2192,
      "max": [
        0.875,
        1
      ],
      "min": [
        0.375,
        0
      ],
      "type": "VEC2"
    },
    {
      "bufferView": 19,
      "componentType": 5123,
      "count": 5220,
      "max": [
        2191
      ],
      "min": [
        0
      ],
      "type": "SCALAR"
    },
    {
      "bufferView": 20,
      "componentType": 5126,
      "count": 240,
      "max": [
        1,
        0,
        1
      ],
      "min": [
        -1,
        0,
        -59
      ],
      "type": "VEC3"
    },
    {
      "bufferView": 21,
      "componentType": 5126,
      "count": 240,
      "max": [
        0,
        1,
        0
      ],
      "min": [
        0,
        1,
        0
      ],
      "type": "VEC3"
    },
    {
      "bufferView": 22,
      "componentType": 5126,
      "count": 240,
      "max": [
        1,
        1
      ],
      "min": [
        0,
        0
      ],
      "type": "VEC2"
    },
    {
      "bufferView": 23,
      "componentType": 5123,
      "count": 360,
      "max": [
        239
      ],
      "min": [
        0
      ],
      "type": "SCALAR"
    },
    {
      "bufferView": 24,
      "componentType": 5126,
      "count": 480,
      "max": [
        0.040871210396289825,
        0.03261825814843178,
        1
      ],
      "min": [
        -0.045594364404678345,
        0,
        -59
      ],
      "type": "VEC3"
    },
    {
      "bufferView": 25,
      "componentType": 5126,
      "count": 480,
      "max": [
        1,
        0,
        0
      ],
      "min": [
        -1,
        -1,
        -1
      ],
      "type": "VEC3"
    },
    {
      "bufferView": 26,
      "componentType": 5126,
      "count": 480,
      "max": [
        0.5,
        1
      ],
      "min": [
        0,
        0
      ],
      "type": "VEC2"
    },
    {
      "bufferView": 27,
      "componentType": 5123,
      "count": 720,
      "max": [
        479
      ],
      "min": [
        0
      ],
      "type": "SCALAR"
    },
    {
      "bufferView": 28,
      "componentType": 5126,
      "count": 3360,
      "max": [
        0.8647052645683289,
        1.0442737340927124,
        0.705253005027771
      ],
      "min": [
        -0.8986030220985413,
        0.00215322058647871,
        -58.833160400390625
      ],
      "type": "VEC3"
    },
    {
      "bufferView": 29,
      "componentType": 5126,
      "count": 3360,
      "max": [
        1,
        0.12009935826063156,
        1
      ],
      "min": [
        -0.9673743844032288,
        -0.036901455372571945,
        -1
      ],
      "type": "VEC3"
    },
    {
      "bufferView": 30,
      "componentType": 5126,
      "count": 3360,
      "max": [
        0.6250001788139343,
        0.9442974328994751
      ],
      "min": [
        0.375,
        0.05491316318511963
      ],
      "type": "VEC2"
    },
    {
      "bufferView": 31,
      "componentType": 5123,
      "count": 5040,
      "max": [
        3359
      ],
      "min": [
        0
      ],
      "type": "SCALAR"
    },
    {
      "bufferView": 32,
      "componentType": 5126,
      "count": 24,
      "max": [
        1,
        1,
        36.82979202270508
      ],
      "min": [
        -1,
        -1,
        -1
      ],
      "type": "VEC3"
    },
    {
      "bufferView": 33,
      "componentType": 5126,
      "count": 24,
      "max": [
        1,
        1,
        1
      ],
      "min": [
        -1,
        -1,
        -1
      ],
      "type": "VEC3"
    },
    {
      "bufferView": 34,
      "componentType": 5126,
      "count": 24,
      "max": [
        0.875,
        1
      ],
      "min": [
        0.125,
        0
      ],
      "type": "VEC2"
    },
    {
      "bufferView": 35,
      "componentType": 5123,
      "count": 36,
      "max": [
        23
      ],
      "min": [
        0
      ],
      "type": "SCALAR"
    }
  ],
  "materials": [
    {
      "pbrMetallicRoughness": {
        "baseColorFactor": [
          1,
          0.6282094717025757,
          0.3001518249511719,
          1
        ],
        "metallicFactor": 0,
        "roughnessFactor": 0.5
      },
      "doubleSided": true,
      "name": "Material.001"
    },
    {
      "pbrMetallicRoughness": {
        "baseColorFactor": [
          0,
          0,
          0,
          1
        ],
        "metallicFactor": 0,
        "roughnessFactor": 0.5
      },
      "doubleSided": true,
      "name": "Material.002"
    },
    {
      "pbrMetallicRoughness": {
        "baseColorFactor": [
          0.8000074625015259,
          0.031131621450185776,
          0.04597916826605797,
          1
        ],
        "metallicFactor": 0,
        "roughnessFactor": 0.5
      },
      "doubleSided": true,
      "name": "Material.003"
    },
    {
      "pbrMetallicRoughness": {
        "baseColorFactor": [
          0.00009558086458127946,
          0.0006390059716068208,
          0.8000156879425049,
          1
        ],
        "metallicFactor": 0,
        "roughnessFactor": 0.5
      },
      "doubleSided": true,
      "name": "Material.004"
    },
    {
      "pbrMetallicRoughness": {
        "baseColorFactor": [
          0.014739586040377617,
          0.4576552212238312,
          0.8000074625015259,
          1
        ],
        "metallicFactor": 0,
        "roughnessFactor": 0.5
      },
      "doubleSided": true,
      "name": "Material.005"
    },
    {
      "pbrMetallicRoughness": {
        "baseColorFactor": [
          0.004021820612251759,
          0.18321962654590607,
          0,
          1
        ],
        "metallicFactor": 0,
        "roughnessFactor": 0.5
      },
      "doubleSided": true,
      "name": "Material.007"
    },
    {
      "pbrMetallicRoughness": {
        "baseColorFactor": [
          0.07199026644229889,
          0.07199026644229889,
          0.07199026644229889,
          1
        ],
        "metallicFactor": 0,
        "roughnessFactor": 0.5
      },
      "doubleSided": true,
      "name": "Material"
    },
    {
      "pbrMetallicRoughness": {
        "baseColorFactor": [
          0,
          0,
          0,
          1
        ],
        "metallicFactor": 0,
        "roughnessFactor": 0.5
      },
      "doubleSided": true,
      "name": "Material.011"
    },
    {
      "pbrMetallicRoughness": {
        "baseColorFactor": [
          0.02300899103283882,
          0.694851279258728,
          0.8000156879425049,
          1
        ],
        "metallicFactor": 0,
        "roughnessFactor": 0.5
      },
      "doubleSided": true,
      "name": "Material.012"
    }
  ],
  "meshes": [
    {
      "primitives": [
        {
          "mode": 4,
          "attributes": {
            "POSITION": 0,
            "NORMAL": 1,
            "TEXCOORD_0": 2
          },
          "indices": 3,
          "material": 0
        }
      ]
    },
    {
      "primitives": [
        {
          "mode": 4,
          "attributes": {
            "POSITION": 4,
            "NORMAL": 5,
            "TEXCOORD_0": 6
          },
          "indices": 7,
          "material": 1
        }
      ]
    },
    {
      "primitives": [
        {
          "mode": 4,
          "attributes": {
            "POSITION": 8,
            "NORMAL": 9,
            "TEXCOORD_0": 10
          },
          "indices": 11,
          "material": 2
        }
      ]
    },
    {
      "primitives": [
        {
          "mode": 4,
          "attributes": {
            "POSITION": 12,
            "NORMAL": 13,
            "TEXCOORD_0": 14
          },
          "indices": 15,
          "material": 3
        }
      ]
    },
    {
      "primitives": [
        {
          "mode": 4,
          "attributes": {
            "POSITION": 16,
            "NORMAL": 17,
            "TEXCOORD_0": 18
          },
          "indices": 19,
          "material": 4
        }
      ]
    },
    {
      "primitives": [
        {
          "mode": 4,
          "attributes": {
            "POSITION": 20,
            "NORMAL": 21,
            "TEXCOORD_0": 22
          },
          "indices": 23,
          "material": 5
        }
      ]
    },
    {
      "primitives": [
        {
          "mode": 4,
          "attributes": {
            "POSITION": 24,
            "NORMAL": 25,
            "TEXCOORD_0": 26
          },
          "indices": 27,
          "material": 6
        }
      ]
    },
    {
      "primitives": [
        {
          "mode": 4,
          "attributes": {
            "POSITION": 28,
            "NORMAL": 29,
            "TEXCOORD_0": 30
          },
          "indices": 31,
          "material": 7
        }
      ]
    },
    {
      "primitives": [
        {
          "mode": 4,
          "attributes": {
            "POSITION": 32,
            "NORMAL": 33,
            "TEXCOORD_0": 34
          },
          "indices": 35,
          "material": 8
        }
      ]
    }
  ],
  "cameras": [
    {
      "type": "perspective",
      "perspective": {
        "aspectRatio": 1.6229050279329609,
        "yfov": 0.39959648408210363,
        "zfar": 1000,
        "znear": 0.10000000149011612
      },
      "name": "PerspectiveCamera"
    }
  ],
  "extensions": {
    "KHR_lights_punctual": {
      "lights": [
        {
          "name": "PointLight",
          "color": [
            1,
            1,
            1
          ],
          "intensity": 250,
          "type": "point"
        },
        {
          "name": "PointLight",
          "color": [
            1,
            1,
            1
          ],
          "intensity": 250,
          "type": "point"
        },
        {
          "name": "PointLight",
          "color": [
            1,
            1,
            1
          ],
          "intensity": 250,
          "type": "point"
        },
        {
          "name": "PointLight",
          "color": [
            1,
            1,
            1
          ],
          "intensity": 250,
          "type": "point"
        },
        {
          "name": "PointLight",
          "color": [
            1,
            1,
            1
          ],
          "intensity": 250,
          "type": "point"
        },
        {
          "name": "PointLight",
          "color": [
            1,
            1,
            1
          ],
          "intensity": 250,
          "type": "point"
        }
      ]
    }
  },
  "extensionsUsed": [
    "KHR_lights_punctual"
  ]
}